<svg width="509" height="545" viewBox="0 0 509 545" fill="none" xmlns="http://www.w3.org/2000/svg">
<path d="M327.007 160.101L339.566 231.464L272.062 254L166.566 224.578L176.614 158.536L248.828 136L327.007 160.101Z" fill="#E2E9F7" stroke="black"/>
<path d="M382.148 232.838L396.566 303.875L273.067 348L107.566 303.249L119.477 230.96L168.689 215L167.122 225.953L264.78 252.426L340.146 232.838L337.325 219.381L382.148 232.838Z" fill="#E2E9F7" stroke="black"/>
<path d="M13.5664 369.262L57.5188 355.024L54.7331 364.929L283.471 431.786L450.304 364.929V354.5L494.876 369.262L507.566 439.833L289.352 533L0.566406 445.095L13.5664 369.262Z" fill="#F7CB46" stroke="black"/>
<path d="M437.631 298.479L392.419 283L394.587 298.169L274.124 339.961L110.617 298.479V283L64.7856 298.479L54.5664 365.965L282.485 435L451.566 365.965L437.631 298.479Z" fill="#E2E9F7" stroke="black"/>
<path d="M273.567 270.137L124.566 230.5C123.086 230.06 121.066 230.001 120.066 230.876L272.524 271.375L273.567 270.137Z" fill="#424242" stroke="black"/>
<path d="M279.066 363.5L65.0664 300V298.5L280.566 362.152L278.716 362.46L279.066 363.5Z" fill="#1B1919" stroke="black"/>
<path d="M288.23 457L13.0664 372.5L13.5664 370.5L290.066 456L288.23 457Z" fill="#323232" stroke="black"/>
<path d="M467.102 382.084L295.053 431.464L452.585 368.197L450.114 354L495.52 368.197L507.566 444.426L291.655 533L288.566 456.462L467.102 382.084Z" fill="url(#paint0_linear_940_262)" stroke="black" stroke-width="0.2"/>
<path d="M412.046 309.343L276.566 341.264L393.797 296.326L391.941 283L438.647 295.397L452.566 367.917L281.206 433L279.35 362.339L412.046 309.343Z" fill="url(#paint1_linear_940_262)" stroke="black" stroke-width="0.2"/>
<path d="M364.917 235.063L263.566 251.79L338.424 224.841L336.576 214L381.244 227.939L393.566 297.015L276.197 341L272.192 271.305L364.917 235.063Z" fill="url(#paint2_linear_940_262)" stroke="url(#paint3_linear_940_262)" stroke-width="0.2"/>
<path d="M326.48 160L263.566 180.119V251L338.566 224.69L326.48 160Z" fill="url(#paint4_linear_940_262)" stroke="black" stroke-width="0.2"/>
<path d="M262.707 181L176.566 159.227V158.92L177.496 158L264.566 180.08L262.707 181Z" fill="#4D4D4D" stroke="black"/>
<path d="M299.066 69.5005C295.9 69.3339 282.866 70.8005 256.066 78.0005L258.066 18.5C258.733 18 260.466 17 262.066 17C263.666 17 279.066 18 286.566 18.5C292.4 19.5 305.266 21.7 310.066 22.5C316.066 23.5 337.566 26.5 340.066 26.5C342.066 26.5 347.233 25.5 349.566 25L339.566 35.5C335.566 38.5 330.466 43 328.066 47C325.666 51 337.566 61.3333 344.066 66.5C347.066 68 356.566 68 349.066 69.5005C345.332 70.2476 331.566 73 324.066 71.5C318.066 70.3 304.9 69.667 299.066 69.5005Z" fill="url(#paint5_linear_940_262)" stroke="black"/>
<path d="M253.566 160L253.566 5" stroke="url(#paint6_linear_940_262)" stroke-width="10" stroke-linecap="round"/>
<path d="M117.39 433.925L110.597 457.282L106.765 456.168L111.418 440.171L99.6406 454.096L96.9856 453.324L94.4799 435.245L89.8272 451.242L85.996 450.128L92.7892 426.77L96.9229 427.973L99.7961 448.674L113.29 432.733L117.39 433.925ZM123.576 461.385C121.829 460.877 120.363 460.026 119.18 458.831C118.003 457.614 117.22 456.171 116.83 454.503C116.447 452.812 116.533 451.014 117.087 449.11C117.634 447.228 118.534 445.679 119.786 444.464C121.039 443.249 122.496 442.457 124.158 442.09C125.82 441.723 127.536 441.797 129.306 442.312C131.076 442.826 132.564 443.684 133.77 444.886C134.976 446.087 135.781 447.536 136.187 449.234C136.592 450.931 136.521 452.721 135.974 454.603C135.427 456.485 134.515 458.03 133.24 459.239C131.965 460.448 130.471 461.24 128.758 461.617C127.074 461.977 125.346 461.9 123.576 461.385ZM124.544 458.058C125.53 458.345 126.517 458.377 127.505 458.154C128.516 457.938 129.427 457.437 130.238 456.653C131.05 455.868 131.651 454.804 132.042 453.459C132.433 452.115 132.504 450.909 132.256 449.84C132.014 448.749 131.536 447.845 130.822 447.127C130.107 446.408 129.257 445.906 128.271 445.619C127.285 445.333 126.298 445.301 125.31 445.524C124.344 445.753 123.478 446.266 122.712 447.064C121.951 447.839 121.376 448.899 120.985 450.243C120.405 452.237 120.46 453.93 121.148 455.321C121.866 456.696 122.998 457.609 124.544 458.058ZM151.88 448.877C153.336 449.301 154.548 449.981 155.515 450.918C156.504 451.862 157.151 453.022 157.455 454.399C157.759 455.775 157.667 457.304 157.178 458.984L154.002 469.906L150.204 468.802L153.215 458.451C153.697 456.793 153.65 455.406 153.076 454.291C152.507 453.154 151.506 452.377 150.072 451.96C148.638 451.543 147.365 451.659 146.253 452.307C145.17 452.94 144.388 454.085 143.905 455.743L140.895 466.094L137.064 464.98L142.449 446.462L146.281 447.577L145.665 449.694C146.514 449.115 147.482 448.752 148.569 448.607C149.679 448.468 150.782 448.558 151.88 448.877ZM167.835 457.235L164.854 467.486C164.652 468.18 164.662 468.73 164.885 469.135C165.136 469.524 165.654 469.832 166.438 470.061L168.79 470.745L167.862 473.937L164.837 473.058C163.112 472.556 161.907 471.768 161.223 470.694C160.539 469.621 160.461 468.176 160.989 466.362L163.97 456.111L161.786 455.476L162.695 452.351L164.879 452.986L166.218 448.382L170.083 449.506L168.744 454.11L173.248 455.42L172.339 458.545L167.835 457.235ZM186.445 458.93C187.856 459.34 189.023 460.008 189.945 460.932C190.889 461.863 191.502 463.013 191.784 464.383C192.089 465.76 191.997 467.288 191.508 468.968L188.331 479.891L184.534 478.786L187.544 468.435C188.026 466.777 187.98 465.391 187.405 464.276C186.837 463.139 185.836 462.361 184.402 461.944C182.968 461.527 181.695 461.643 180.583 462.292C179.5 462.924 178.717 464.07 178.235 465.728L175.224 476.079L171.393 474.964L178.626 450.095L182.457 451.209L179.984 459.712C180.862 459.117 181.856 458.75 182.966 458.611C184.098 458.478 185.257 458.585 186.445 458.93ZM207.049 462.553L208.066 459.058L215.056 461.091L207.93 485.591L204.066 484.467L210.175 463.462L207.049 462.553Z" fill="#333333"/>
<defs>
<linearGradient id="paint0_linear_940_262" x1="500.566" y1="406" x2="194.066" y2="508" gradientUnits="userSpaceOnUse">
<stop stop-color="#897022"/>
<stop offset="1" stop-color="#F7CB46"/>
</linearGradient>
<linearGradient id="paint1_linear_940_262" x1="364.566" y1="283" x2="364.566" y2="433" gradientUnits="userSpaceOnUse">
<stop stop-color="#CADCFF"/>
<stop offset="0.5" stop-color="#A1B0CC"/>
<stop offset="0.75" stop-color="#8D9AB3"/>
<stop offset="1" stop-color="#798499"/>
</linearGradient>
<linearGradient id="paint2_linear_940_262" x1="328.566" y1="214" x2="328.566" y2="341" gradientUnits="userSpaceOnUse">
<stop stop-color="#CADCFF"/>
<stop offset="0.5" stop-color="#A1B0CC"/>
<stop offset="0.75" stop-color="#8D9AB3"/>
<stop offset="1" stop-color="#798499"/>
</linearGradient>
<linearGradient id="paint3_linear_940_262" x1="332.109" y1="214" x2="332.109" y2="341" gradientUnits="userSpaceOnUse">
<stop/>
<stop offset="1" stop-color="#666666"/>
</linearGradient>
<linearGradient id="paint4_linear_940_262" x1="301.066" y1="160" x2="301.066" y2="251" gradientUnits="userSpaceOnUse">
<stop stop-color="#CADCFF"/>
<stop offset="0.5" stop-color="#A1B0CC"/>
<stop offset="0.75" stop-color="#8D9AB3"/>
<stop offset="1" stop-color="#798499"/>
</linearGradient>
<linearGradient id="paint5_linear_940_262" x1="303.976" y1="17" x2="303.976" y2="78.0005" gradientUnits="userSpaceOnUse">
<stop stop-color="#F7CB46"/>
<stop offset="1" stop-color="#C9A537"/>
</linearGradient>
<linearGradient id="paint6_linear_940_262" x1="253.566" y1="38" x2="254.066" y2="160" gradientUnits="userSpaceOnUse">
<stop stop-color="#A2BFFF"/>
<stop offset="1" stop-color="#414652"/>
</linearGradient>
</defs>
</svg>
