<svg width="509" height="534" viewBox="0 0 509 534" fill="none" xmlns="http://www.w3.org/2000/svg">
<path d="M327.007 160.101L339.566 231.464L272.062 254L166.566 224.578L176.614 158.536L248.828 136L327.007 160.101Z" fill="#E2E9F7" stroke="black"/>
<path d="M382.148 232.838L396.566 303.875L273.067 348L107.566 303.249L119.477 230.96L168.689 215L167.122 225.953L264.78 252.426L340.146 232.838L337.325 219.381L382.148 232.838Z" fill="#E2E9F7" stroke="black"/>
<path d="M13.5664 369.262L57.5188 355.024L54.7331 364.929L283.471 431.786L450.304 364.929V354.5L494.876 369.262L507.566 439.833L289.352 533L0.566406 445.095L13.5664 369.262Z" fill="#E2E9F7" stroke="black"/>
<path d="M437.631 298.479L392.419 283L394.587 298.169L274.124 339.961L110.617 298.479V283L64.7856 298.479L54.5664 365.965L282.485 435L451.566 365.965L437.631 298.479Z" fill="#F7CB46" stroke="black"/>
<path d="M273.567 270.137L124.566 230.5C123.086 230.06 121.066 230.001 120.066 230.876L272.524 271.375L273.567 270.137Z" fill="#424242" stroke="black"/>
<path d="M279.066 363.5L65.0664 300V298.5L280.566 362.152L278.716 362.46L279.066 363.5Z" fill="#1B1919" stroke="black"/>
<path d="M288.23 457L13.0664 372.5L13.5664 370.5L290.066 456L288.23 457Z" fill="#323232" stroke="black"/>
<path d="M467.102 382.084L295.053 431.464L452.585 368.197L450.114 354L495.52 368.197L507.566 444.426L291.655 533L288.566 456.462L467.102 382.084Z" fill="url(#paint0_linear_940_263)" stroke="black" stroke-width="0.2"/>
<path d="M412.046 309.343L276.566 341.264L393.797 296.326L391.941 283L438.647 295.397L452.566 367.917L281.206 433L279.35 362.339L412.046 309.343Z" fill="url(#paint1_linear_940_263)" stroke="black" stroke-width="0.2"/>
<path d="M364.917 235.063L263.566 251.79L338.424 224.841L336.576 214L381.244 227.939L393.566 297.015L276.197 341L272.192 271.305L364.917 235.063Z" fill="url(#paint2_linear_940_263)" stroke="url(#paint3_linear_940_263)" stroke-width="0.2"/>
<path d="M326.48 160L263.566 180.119V251L338.566 224.69L326.48 160Z" fill="url(#paint4_linear_940_263)" stroke="black" stroke-width="0.2"/>
<path d="M262.707 181L176.566 159.227V158.92L177.496 158L264.566 180.08L262.707 181Z" fill="#4D4D4D" stroke="black"/>
<path d="M299.066 69.5005C295.9 69.3339 282.866 70.8005 256.066 78.0005L258.066 18.5C258.733 18 260.466 17 262.066 17C263.666 17 279.066 18 286.566 18.5C292.4 19.5 305.266 21.7 310.066 22.5C316.066 23.5 337.566 26.5 340.066 26.5C342.066 26.5 347.233 25.5 349.566 25L339.566 35.5C335.566 38.5 330.466 43 328.066 47C325.666 51 337.566 61.3333 344.066 66.5C347.066 68 356.566 68 349.066 69.5005C345.332 70.2476 331.566 73 324.066 71.5C318.066 70.3 304.9 69.667 299.066 69.5005Z" fill="url(#paint5_linear_940_263)" stroke="black"/>
<path d="M253.566 160L253.566 5" stroke="url(#paint6_linear_940_263)" stroke-width="10" stroke-linecap="round"/>
<path d="M132.566 344.813L125.773 368.17L121.942 367.056L126.595 351.059L114.817 364.984L112.162 364.212L109.656 346.133L105.004 362.13L101.172 361.015L107.966 337.658L112.099 338.861L114.973 359.562L128.466 343.621L132.566 344.813ZM138.753 372.273C137.005 371.765 135.54 370.914 134.356 369.719C133.179 368.502 132.396 367.059 132.007 365.391C131.624 363.7 131.709 361.902 132.263 359.998C132.81 358.116 133.71 356.567 134.963 355.352C136.215 354.137 137.673 353.345 139.335 352.978C140.997 352.611 142.713 352.685 144.483 353.2C146.253 353.714 147.741 354.572 148.946 355.774C150.152 356.975 150.958 358.424 151.363 360.122C151.769 361.819 151.698 363.609 151.15 365.491C150.603 367.373 149.692 368.918 148.417 370.127C147.142 371.336 145.648 372.128 143.935 372.505C142.25 372.865 140.523 372.788 138.753 372.273ZM139.721 368.946C140.706 369.233 141.693 369.265 142.682 369.042C143.692 368.826 144.603 368.325 145.415 367.541C146.226 366.756 146.827 365.691 147.218 364.347C147.609 363.003 147.681 361.797 147.433 360.728C147.191 359.637 146.713 358.733 145.998 358.015C145.284 357.296 144.434 356.794 143.448 356.507C142.462 356.221 141.475 356.189 140.487 356.412C139.521 356.641 138.655 357.154 137.888 357.952C137.128 358.727 136.552 359.787 136.161 361.131C135.582 363.125 135.636 364.818 136.325 366.209C137.043 367.584 138.175 368.497 139.721 368.946ZM167.057 359.765C168.513 360.189 169.724 360.869 170.691 361.806C171.68 362.75 172.327 363.91 172.631 365.287C172.936 366.663 172.844 368.191 172.355 369.872L169.178 380.794L165.381 379.69L168.391 369.339C168.873 367.681 168.827 366.294 168.252 365.179C167.684 364.042 166.683 363.265 165.249 362.848C163.815 362.431 162.542 362.547 161.43 363.195C160.347 363.828 159.564 364.973 159.082 366.631L156.071 376.982L152.24 375.868L157.626 357.35L161.457 358.465L160.841 360.582C161.69 360.003 162.658 359.64 163.745 359.495C164.855 359.356 165.959 359.446 167.057 359.765ZM183.012 368.123L180.03 378.374C179.828 379.068 179.839 379.618 180.061 380.023C180.313 380.412 180.83 380.72 181.614 380.948L183.967 381.633L183.038 384.825L180.014 383.946C178.289 383.444 177.084 382.656 176.4 381.582C175.716 380.509 175.638 379.064 176.166 377.25L179.147 366.999L176.962 366.364L177.871 363.239L180.056 363.874L181.395 359.27L185.26 360.394L183.921 364.998L188.424 366.308L187.515 369.433L183.012 368.123ZM201.621 369.818C203.033 370.228 204.2 370.896 205.121 371.82C206.066 372.751 206.679 373.901 206.961 375.271C207.265 376.647 207.173 378.176 206.684 379.856L203.508 390.779L199.71 389.674L202.721 379.323C203.203 377.665 203.156 376.279 202.582 375.164C202.013 374.026 201.012 373.249 199.578 372.832C198.144 372.415 196.871 372.531 195.759 373.18C194.676 373.812 193.894 374.958 193.411 376.616L190.401 386.967L186.57 385.852L193.803 360.983L197.634 362.097L195.161 370.6C196.039 370.005 197.032 369.638 198.142 369.499C199.274 369.366 200.434 369.473 201.621 369.818ZM220.253 389.999C222.945 388.765 225.079 387.733 226.657 386.904C228.264 386.059 229.67 385.108 230.877 384.049C232.084 382.991 232.877 381.812 233.255 380.513C233.646 379.168 233.627 378.021 233.199 377.07C232.793 376.126 231.907 375.455 230.54 375.057C229.218 374.673 228.064 374.799 227.077 375.435C226.119 376.056 225.412 377.065 224.957 378.464L221.26 377.389C222.07 374.854 223.399 373.126 225.246 372.205C227.122 371.269 229.192 371.13 231.454 371.788C233.897 372.498 235.606 373.724 236.581 375.466C237.579 377.214 237.753 379.209 237.101 381.449C236.632 383.062 235.764 384.499 234.499 385.759C233.262 387.003 231.9 388.053 230.412 388.908C228.953 389.747 227.125 390.685 224.927 391.723L223.024 392.628L233.678 395.726L232.749 398.919L216.416 394.168L217.227 391.379L220.253 389.999Z" fill="#333333"/>
<defs>
<linearGradient id="paint0_linear_940_263" x1="500.566" y1="406" x2="194.066" y2="508" gradientUnits="userSpaceOnUse">
<stop stop-color="#9CAAC5"/>
<stop offset="1" stop-color="#A5B3D0"/>
</linearGradient>
<linearGradient id="paint1_linear_940_263" x1="252.066" y1="367" x2="440.066" y2="348" gradientUnits="userSpaceOnUse">
<stop stop-color="#CEA938"/>
<stop offset="1" stop-color="#8B7123"/>
</linearGradient>
<linearGradient id="paint2_linear_940_263" x1="328.566" y1="214" x2="328.566" y2="341" gradientUnits="userSpaceOnUse">
<stop stop-color="#CADCFF"/>
<stop offset="0.5" stop-color="#A1B0CC"/>
<stop offset="0.75" stop-color="#8D9AB3"/>
<stop offset="1" stop-color="#798499"/>
</linearGradient>
<linearGradient id="paint3_linear_940_263" x1="332.109" y1="214" x2="332.109" y2="341" gradientUnits="userSpaceOnUse">
<stop/>
<stop offset="1" stop-color="#666666"/>
</linearGradient>
<linearGradient id="paint4_linear_940_263" x1="301.066" y1="160" x2="301.066" y2="251" gradientUnits="userSpaceOnUse">
<stop stop-color="#CADCFF"/>
<stop offset="0.5" stop-color="#A1B0CC"/>
<stop offset="0.75" stop-color="#8D9AB3"/>
<stop offset="1" stop-color="#798499"/>
</linearGradient>
<linearGradient id="paint5_linear_940_263" x1="303.976" y1="17" x2="303.976" y2="78.0005" gradientUnits="userSpaceOnUse">
<stop stop-color="#F7CB46"/>
<stop offset="1" stop-color="#B89731"/>
</linearGradient>
<linearGradient id="paint6_linear_940_263" x1="253.566" y1="38" x2="254.066" y2="160" gradientUnits="userSpaceOnUse">
<stop stop-color="#A2BFFF"/>
<stop offset="1" stop-color="#414652"/>
</linearGradient>
</defs>
</svg>
