<svg width="509" height="534" viewBox="0 0 509 534" fill="none" xmlns="http://www.w3.org/2000/svg">
<path d="M327.007 160.101L339.566 231.464L272.062 254L166.566 224.578L176.614 158.536L248.828 136L327.007 160.101Z" fill="#E2E9F7" stroke="black"/>
<path d="M382.148 232.838L396.566 303.875L273.067 348L107.566 303.249L119.477 230.96L168.689 215L167.122 225.953L264.78 252.426L340.146 232.838L337.325 219.381L382.148 232.838Z" fill="#F7CB46" stroke="black"/>
<path d="M13.5664 369.262L57.5188 355.024L54.7331 364.929L283.471 431.786L450.304 364.929V354.5L494.876 369.262L507.566 439.833L289.352 533L0.566406 445.095L13.5664 369.262Z" fill="#E2E9F7" stroke="black"/>
<path d="M437.631 298.479L392.419 283L394.587 298.169L274.124 339.961L110.617 298.479V283L64.7856 298.479L54.5664 365.965L282.485 435L451.566 365.965L437.631 298.479Z" fill="#E2E9F7" stroke="black"/>
<path d="M273.567 270.137L124.566 230.5C123.086 230.06 121.066 230.001 120.066 230.876L272.524 271.375L273.567 270.137Z" fill="#424242" stroke="black"/>
<path d="M279.066 363.5L65.0664 300V298.5L280.566 362.152L278.716 362.46L279.066 363.5Z" fill="#1B1919" stroke="black"/>
<path d="M288.23 457L13.0664 372.5L13.5664 370.5L290.066 456L288.23 457Z" fill="#323232" stroke="black"/>
<path d="M467.102 382.084L295.053 431.464L452.585 368.197L450.114 354L495.52 368.197L507.566 444.426L291.655 533L288.566 456.462L467.102 382.084Z" fill="url(#paint0_linear_940_264)" stroke="black" stroke-width="0.2"/>
<path d="M412.046 309.343L276.566 341.264L393.797 296.326L391.941 283L438.647 295.397L452.566 367.917L281.206 433L279.35 362.339L412.046 309.343Z" fill="url(#paint1_linear_940_264)" stroke="black" stroke-width="0.2"/>
<path d="M364.917 235.063L263.566 251.79L338.424 224.841L336.576 214L381.244 227.939L393.566 297.015L276.197 341L272.192 271.305L364.917 235.063Z" fill="url(#paint2_linear_940_264)" stroke="url(#paint3_linear_940_264)" stroke-width="0.2"/>
<path d="M326.48 160L263.566 180.119V251L338.566 224.69L326.48 160Z" fill="url(#paint4_linear_940_264)" stroke="black" stroke-width="0.2"/>
<path d="M262.707 181L176.566 159.227V158.92L177.496 158L264.566 180.08L262.707 181Z" fill="#4D4D4D" stroke="black"/>
<path d="M299.066 69.5005C295.9 69.3339 282.866 70.8005 256.066 78.0005L258.066 18.5C258.733 18 260.466 17 262.066 17C263.666 17 279.066 18 286.566 18.5C292.4 19.5 305.266 21.7 310.066 22.5C316.066 23.5 337.566 26.5 340.066 26.5C342.066 26.5 347.233 25.5 349.566 25L339.566 35.5C335.566 38.5 330.466 43 328.066 47C325.666 51 337.566 61.3333 344.066 66.5C347.066 68 356.566 68 349.066 69.5005C345.332 70.2476 331.566 73 324.066 71.5C318.066 70.3 304.9 69.667 299.066 69.5005Z" fill="url(#paint5_linear_940_264)" stroke="black"/>
<path d="M253.566 160L253.566 5" stroke="url(#paint6_linear_940_264)" stroke-width="10" stroke-linecap="round"/>
<path d="M161.101 266.392L156.264 286.674L152.937 285.88L156.25 271.99L146.75 284.405L144.445 283.855L141.542 268.482L138.229 282.373L134.903 281.579L139.74 261.298L143.329 262.154L146.656 279.756L157.54 265.543L161.101 266.392ZM167.548 289.642C166.03 289.281 164.74 288.613 163.677 287.64C162.618 286.647 161.887 285.445 161.484 284.033C161.085 282.601 161.083 281.058 161.477 279.405C161.867 277.771 162.572 276.407 163.594 275.314C164.615 274.221 165.83 273.483 167.237 273.099C168.645 272.715 170.117 272.706 171.654 273.073C173.191 273.44 174.5 274.112 175.583 275.09C176.666 276.067 177.416 277.274 177.834 278.711C178.253 280.147 178.267 281.682 177.877 283.316C177.487 284.95 176.772 286.312 175.731 287.4C174.69 288.488 173.444 289.229 171.993 289.623C170.567 290.003 169.085 290.009 167.548 289.642ZM168.237 286.753C169.093 286.958 169.939 286.944 170.776 286.711C171.632 286.484 172.391 286.017 173.053 285.311C173.714 284.606 174.185 283.669 174.463 282.502C174.741 281.335 174.752 280.299 174.495 279.395C174.242 278.471 173.795 277.716 173.153 277.132C172.511 276.547 171.762 276.152 170.906 275.948C170.05 275.744 169.204 275.758 168.367 275.99C167.55 276.227 166.83 276.703 166.207 277.418C165.589 278.113 165.141 279.045 164.862 280.212C164.449 281.944 164.567 283.39 165.215 284.552C165.887 285.7 166.894 286.433 168.237 286.753ZM191.255 277.748C192.519 278.049 193.585 278.581 194.452 279.343C195.338 280.11 195.941 281.076 196.259 282.241C196.577 283.407 196.562 284.719 196.214 286.178L193.952 295.662L190.655 294.876L192.798 285.888C193.142 284.448 193.044 283.263 192.505 282.333C191.971 281.383 191.081 280.76 189.836 280.463C188.591 280.166 187.506 280.318 186.581 280.92C185.681 281.507 185.059 282.521 184.715 283.96L182.572 292.948L179.245 292.155L183.08 276.076L186.406 276.869L185.968 278.707C186.67 278.176 187.484 277.825 188.409 277.655C189.353 277.489 190.302 277.52 191.255 277.748ZM205.264 284.235L203.142 293.135C202.998 293.738 203.03 294.209 203.237 294.546C203.469 294.868 203.925 295.111 204.606 295.273L206.648 295.76L205.987 298.533L203.361 297.906C201.863 297.549 200.799 296.925 200.168 296.034C199.537 295.144 199.41 293.911 199.786 292.335L201.909 283.435L200.012 282.982L200.659 280.268L202.556 280.721L203.509 276.723L206.865 277.523L205.912 281.521L209.822 282.454L209.175 285.167L205.264 284.235ZM221.268 284.906C222.493 285.198 223.52 285.721 224.348 286.473C225.195 287.23 225.769 288.19 226.067 289.351C226.386 290.516 226.371 291.829 226.023 293.288L223.761 302.772L220.463 301.985L222.607 292.997C222.95 291.558 222.853 290.373 222.314 289.442C221.779 288.492 220.89 287.869 219.645 287.572C218.4 287.275 217.315 287.428 216.39 288.029C215.489 288.616 214.867 289.63 214.524 291.069L212.38 300.057L209.053 299.264L214.204 277.67L217.53 278.463L215.769 285.846C216.496 285.3 217.331 284.944 218.276 284.778C219.239 284.617 220.236 284.66 221.268 284.906ZM238.909 289.453C239.458 287.671 240.485 286.425 241.99 285.715C243.516 285.01 245.271 284.894 247.255 285.367C248.617 285.692 249.736 286.216 250.612 286.939C251.488 287.662 252.079 288.502 252.386 289.459C252.692 290.416 252.72 291.42 252.469 292.471C252.182 293.677 251.615 294.631 250.768 295.334C249.922 296.037 249.017 296.428 248.053 296.506L248.025 296.623C249.089 297.247 249.831 298.102 250.25 299.189C250.674 300.257 250.714 301.51 250.371 302.95C250.097 304.098 249.591 305.056 248.852 305.826C248.114 306.595 247.166 307.12 246.01 307.399C244.858 307.659 243.562 307.618 242.123 307.274C240.022 306.773 238.418 305.825 237.311 304.43C236.229 303.021 235.88 301.293 236.265 299.246L239.475 300.012C239.307 301.062 239.504 302.003 240.066 302.836C240.633 303.65 241.529 304.203 242.755 304.495C243.941 304.778 244.932 304.675 245.727 304.186C246.527 303.678 247.05 302.908 247.296 301.877C247.621 300.515 247.413 299.448 246.672 298.675C245.955 297.887 244.702 297.28 242.912 296.853L242.153 296.672L242.807 293.929L243.595 294.117C245.176 294.473 246.435 294.496 247.372 294.185C248.33 293.879 248.938 293.181 249.198 292.091C249.421 291.158 249.295 290.346 248.822 289.658C248.354 288.95 247.565 288.464 246.456 288.199C245.367 287.939 244.453 288.02 243.715 288.44C242.982 288.841 242.46 289.436 242.149 290.225L238.909 289.453Z" fill="#333333"/>
<defs>
<linearGradient id="paint0_linear_940_264" x1="500.566" y1="406" x2="194.066" y2="508" gradientUnits="userSpaceOnUse">
<stop stop-color="#9CAAC5"/>
<stop offset="1" stop-color="#A5B3D0"/>
</linearGradient>
<linearGradient id="paint1_linear_940_264" x1="252.066" y1="367" x2="440.066" y2="348" gradientUnits="userSpaceOnUse">
<stop stop-color="#E2E9F7"/>
<stop offset="1" stop-color="#A0AECA"/>
</linearGradient>
<linearGradient id="paint2_linear_940_264" x1="382.066" y1="278" x2="233.566" y2="290.5" gradientUnits="userSpaceOnUse">
<stop stop-color="#967A26"/>
<stop offset="1" stop-color="#F7CB46"/>
</linearGradient>
<linearGradient id="paint3_linear_940_264" x1="332.109" y1="214" x2="332.109" y2="341" gradientUnits="userSpaceOnUse">
<stop/>
<stop offset="1" stop-color="#666666"/>
</linearGradient>
<linearGradient id="paint4_linear_940_264" x1="301.066" y1="160" x2="301.066" y2="251" gradientUnits="userSpaceOnUse">
<stop stop-color="#CADCFF"/>
<stop offset="0.5" stop-color="#A1B0CC"/>
<stop offset="0.75" stop-color="#8D9AB3"/>
<stop offset="1" stop-color="#798499"/>
</linearGradient>
<linearGradient id="paint5_linear_940_264" x1="303.976" y1="17" x2="303.976" y2="78.0005" gradientUnits="userSpaceOnUse">
<stop stop-color="#F7CB46"/>
<stop offset="1" stop-color="#B89731"/>
</linearGradient>
<linearGradient id="paint6_linear_940_264" x1="253.566" y1="38" x2="254.066" y2="160" gradientUnits="userSpaceOnUse">
<stop stop-color="#A2BFFF"/>
<stop offset="1" stop-color="#414652"/>
</linearGradient>
</defs>
</svg>
