<svg width="509" height="534" viewBox="0 0 509 534" fill="none" xmlns="http://www.w3.org/2000/svg">
<path d="M327.007 160.101L339.566 231.464L272.062 254L166.566 224.578L176.614 158.536L248.828 136L327.007 160.101Z" fill="#F7CB46" stroke="black"/>
<path d="M382.148 232.838L396.566 303.875L273.067 348L107.566 303.249L119.477 230.96L168.689 215L167.122 225.953L264.78 252.426L340.146 232.838L337.325 219.381L382.148 232.838Z" fill="#E2E9F7" stroke="black"/>
<path d="M13.5664 369.262L57.5188 355.024L54.7331 364.929L283.471 431.786L450.304 364.929V354.5L494.876 369.262L507.566 439.833L289.352 533L0.566406 445.095L13.5664 369.262Z" fill="#E2E9F7" stroke="black"/>
<path d="M437.631 298.479L392.419 283L394.587 298.169L274.124 339.961L110.617 298.479V283L64.7856 298.479L54.5664 365.965L282.485 435L451.566 365.965L437.631 298.479Z" fill="#E2E9F7" stroke="black"/>
<path d="M273.567 270.137L124.566 230.5C123.086 230.06 121.066 230.001 120.066 230.876L272.524 271.375L273.567 270.137Z" fill="#424242" stroke="black"/>
<path d="M279.066 363.5L65.0664 300V298.5L280.566 362.152L278.716 362.46L279.066 363.5Z" fill="#1B1919" stroke="black"/>
<path d="M288.23 457L13.0664 372.5L13.5664 370.5L290.066 456L288.23 457Z" fill="#323232" stroke="black"/>
<path d="M467.102 382.084L295.053 431.464L452.585 368.197L450.114 354L495.52 368.197L507.566 444.426L291.655 533L288.566 456.462L467.102 382.084Z" fill="url(#paint0_linear_940_265)" stroke="black" stroke-width="0.2"/>
<path d="M412.046 309.343L276.566 341.264L393.797 296.326L391.941 283L438.647 295.397L452.566 367.917L281.206 433L279.35 362.339L412.046 309.343Z" fill="url(#paint1_linear_940_265)" stroke="black" stroke-width="0.2"/>
<path d="M364.917 235.063L263.566 251.79L338.424 224.841L336.576 214L381.244 227.939L393.566 297.015L276.197 341L272.192 271.305L364.917 235.063Z" fill="url(#paint2_linear_940_265)" stroke="url(#paint3_linear_940_265)" stroke-width="0.2"/>
<path d="M326.48 160L263.566 180.119V251L338.566 224.69L326.48 160Z" fill="url(#paint4_linear_940_265)" stroke="black" stroke-width="0.2"/>
<path d="M262.707 181L176.566 159.227V158.92L177.496 158L264.566 180.08L262.707 181Z" fill="#4D4D4D" stroke="black"/>
<path d="M299.066 69.5005C295.9 69.3339 282.866 70.8005 256.066 78.0005L258.066 18.5C258.733 18 260.466 17 262.066 17C263.666 17 279.066 18 286.566 18.5C292.4 19.5 305.266 21.7 310.066 22.5C316.066 23.5 337.566 26.5 340.066 26.5C342.066 26.5 347.233 25.5 349.566 25L339.566 35.5C335.566 38.5 330.466 43 328.066 47C325.666 51 337.566 61.3333 344.066 66.5C347.066 68 356.566 68 349.066 69.5005C345.332 70.2476 331.566 73 324.066 71.5C318.066 70.3 304.9 69.667 299.066 69.5005Z" fill="url(#paint5_linear_940_265)" stroke="black"/>
<path d="M253.566 160L253.566 5" stroke="url(#paint6_linear_940_265)" stroke-width="10" stroke-linecap="round"/>
<path d="M193.262 194.944L190.037 208.465L187.819 207.936L190.028 198.675L183.695 206.952L182.158 206.586L180.223 196.337L178.014 205.597L175.796 205.068L179.021 191.548L181.414 192.118L183.632 203.853L190.888 194.378L193.262 194.944ZM197.56 210.444C196.548 210.203 195.688 209.758 194.979 209.109C194.273 208.447 193.786 207.645 193.517 206.704C193.251 205.75 193.25 204.721 193.513 203.619C193.773 202.529 194.243 201.62 194.924 200.892C195.605 200.163 196.414 199.671 197.353 199.415C198.291 199.159 199.273 199.153 200.297 199.398C201.322 199.642 202.195 200.09 202.917 200.742C203.638 201.394 204.139 202.198 204.418 203.156C204.696 204.113 204.706 205.137 204.446 206.226C204.186 207.316 203.709 208.223 203.015 208.949C202.322 209.674 201.491 210.168 200.524 210.431C199.572 210.684 198.584 210.688 197.56 210.444ZM198.019 208.518C198.59 208.654 199.154 208.645 199.712 208.49C200.283 208.338 200.789 208.027 201.23 207.556C201.671 207.086 201.984 206.462 202.17 205.683C202.356 204.905 202.363 204.215 202.191 203.612C202.023 202.996 201.725 202.493 201.297 202.103C200.869 201.713 200.37 201.45 199.799 201.314C199.228 201.178 198.664 201.187 198.106 201.342C197.561 201.5 197.081 201.817 196.666 202.294C196.254 202.758 195.955 203.379 195.769 204.157C195.494 205.311 195.573 206.276 196.005 207.05C196.453 207.815 197.124 208.304 198.019 208.518ZM213.365 202.514C214.208 202.715 214.918 203.07 215.496 203.578C216.087 204.089 216.488 204.733 216.701 205.51C216.913 206.287 216.903 207.162 216.671 208.134L215.163 214.457L212.965 213.933L214.394 207.941C214.623 206.981 214.557 206.191 214.198 205.571C213.842 204.938 213.249 204.522 212.419 204.324C211.589 204.126 210.865 204.228 210.249 204.629C209.648 205.02 209.234 205.696 209.005 206.656L207.576 212.648L205.358 212.119L207.914 201.399L210.132 201.928L209.84 203.154C210.308 202.799 210.851 202.566 211.467 202.452C212.097 202.342 212.729 202.362 213.365 202.514ZM222.704 206.839L221.289 212.772C221.193 213.174 221.214 213.488 221.353 213.713C221.507 213.928 221.811 214.089 222.265 214.198L223.627 214.522L223.186 216.371L221.435 215.953C220.437 215.715 219.727 215.299 219.307 214.705C218.886 214.111 218.801 213.289 219.052 212.239L220.467 206.305L219.203 206.004L219.634 204.194L220.899 204.496L221.534 201.831L223.771 202.364L223.136 205.03L225.743 205.651L225.311 207.461L222.704 206.839ZM233.373 207.286C234.19 207.481 234.875 207.829 235.427 208.331C235.992 208.836 236.374 209.475 236.573 210.249C236.785 211.026 236.775 211.901 236.543 212.874L235.035 219.197L232.837 218.672L234.266 212.68C234.495 211.721 234.43 210.931 234.07 210.31C233.714 209.677 233.121 209.262 232.291 209.064C231.461 208.866 230.738 208.967 230.121 209.368C229.521 209.76 229.106 210.435 228.877 211.395L227.448 217.387L225.23 216.858L228.664 202.462L230.881 202.991L229.708 207.913C230.192 207.549 230.749 207.311 231.378 207.201C232.021 207.094 232.686 207.122 233.373 207.286ZM243.059 217.985L243.458 216.312L252.231 208.494L254.916 209.134L252.74 218.258L254.549 218.69L254.089 220.616L252.28 220.184L251.575 223.141L249.396 222.622L250.101 219.665L243.059 217.985ZM252.296 210.894L246.067 216.667L250.658 217.762L252.296 210.894Z" fill="#333333"/>
<defs>
<linearGradient id="paint0_linear_940_265" x1="500.566" y1="406" x2="194.066" y2="508" gradientUnits="userSpaceOnUse">
<stop stop-color="#9CAAC5"/>
<stop offset="1" stop-color="#A5B3D0"/>
</linearGradient>
<linearGradient id="paint1_linear_940_265" x1="252.066" y1="367" x2="440.066" y2="348" gradientUnits="userSpaceOnUse">
<stop stop-color="#E2E9F7"/>
<stop offset="1" stop-color="#A0AECA"/>
</linearGradient>
<linearGradient id="paint2_linear_940_265" x1="382.066" y1="278" x2="233.566" y2="290.5" gradientUnits="userSpaceOnUse">
<stop stop-color="#A2B0CC"/>
<stop offset="1" stop-color="#A1AFCB"/>
</linearGradient>
<linearGradient id="paint3_linear_940_265" x1="332.109" y1="214" x2="332.109" y2="341" gradientUnits="userSpaceOnUse">
<stop/>
<stop offset="1" stop-color="#666666"/>
</linearGradient>
<linearGradient id="paint4_linear_940_265" x1="301.066" y1="160" x2="301.066" y2="251" gradientUnits="userSpaceOnUse">
<stop stop-color="#D3AD3A"/>
<stop offset="1" stop-color="#997C27"/>
</linearGradient>
<linearGradient id="paint5_linear_940_265" x1="303.976" y1="17" x2="303.976" y2="78.0005" gradientUnits="userSpaceOnUse">
<stop stop-color="#F7CB46"/>
<stop offset="1" stop-color="#B89731"/>
</linearGradient>
<linearGradient id="paint6_linear_940_265" x1="253.566" y1="38" x2="254.066" y2="160" gradientUnits="userSpaceOnUse">
<stop stop-color="#A2BFFF"/>
<stop offset="1" stop-color="#414652"/>
</linearGradient>
</defs>
</svg>
