<svg width="161" height="78" viewBox="0 0 161 78" fill="none" xmlns="http://www.w3.org/2000/svg">
<path d="M82.2676 69.3214L82.338 68.6232C82.7091 68.6506 119.107 71.0319 138.304 50.3928C157.487 29.7694 146.726 7.46694 146.618 7.24333L147.383 6.97656C147.496 7.2041 158.45 29.8675 138.962 50.8204C119.483 71.7616 82.6386 69.345 82.2676 69.3214Z" fill="#CE8600"/>
<path d="M148.714 11.4121C148.714 11.4121 148.456 11.2905 148.085 11.0512C147.709 10.8119 147.221 10.4549 146.718 10.0037C145.708 9.10145 144.722 7.77939 144.083 6.35532C143.449 4.92734 143.158 3.39735 143.214 2.15767C143.247 1.54175 143.336 1.0043 143.435 0.619847C143.529 0.235389 143.627 0 143.627 0C143.627 0 143.89 0.121631 144.266 0.360937C144.642 0.600242 145.13 0.957232 145.633 1.40838C146.643 2.31068 147.624 3.62881 148.259 5.0568C148.893 6.48479 149.179 8.02262 149.123 9.25445C149.095 9.87429 149.005 10.4078 148.907 10.7962C148.813 11.1807 148.714 11.4121 148.714 11.4121Z" fill="#CE8600"/>
<path d="M150.135 18.7884C150.135 18.7884 150.069 18.5452 150.031 18.1529C149.994 17.7606 149.984 17.2192 150.05 16.6033C150.177 15.3714 150.689 13.8807 151.53 12.5272C152.371 11.1738 153.54 9.9694 154.677 9.17695C155.245 8.78072 155.781 8.47866 156.194 8.28251C156.598 8.08243 156.875 7.98828 156.875 7.98828C156.875 7.98828 156.941 8.23151 156.978 8.62381C157.021 9.01611 157.025 9.5575 156.964 10.1734C156.837 11.4052 156.321 12.8999 155.48 14.2455C154.635 15.595 153.46 16.7994 152.328 17.5958C151.755 17.992 151.22 18.2941 150.816 18.4942C150.407 18.6903 150.135 18.7884 150.135 18.7884Z" fill="#CE8600"/>
<path d="M149.926 18.9503C149.926 18.9503 149.63 18.9346 149.169 18.8522C148.709 18.7738 148.084 18.6247 147.394 18.4011C146.018 17.946 144.449 17.1104 143.138 16.0512C141.828 14.9959 140.776 13.713 140.193 12.5793C139.897 12.0104 139.7 11.4965 139.592 11.1081C139.479 10.7315 139.451 10.4805 139.451 10.4805C139.451 10.4805 139.747 10.4962 140.207 10.5785C140.672 10.657 141.297 10.8061 141.988 11.0297C143.364 11.4809 144.933 12.3204 146.238 13.3796C147.544 14.4427 148.596 15.7216 149.184 16.8593C149.475 17.4242 149.672 17.9382 149.78 18.3226C149.898 18.7031 149.926 18.9503 149.926 18.9503Z" fill="#CE8600"/>
<path d="M149.695 29.6194C149.695 29.6194 149.709 29.3487 149.808 28.9329C149.907 28.5131 150.09 27.9443 150.372 27.3127C150.935 26.0534 152.002 24.6176 153.354 23.4093C154.712 22.201 156.356 21.2241 157.826 20.671C158.563 20.4003 159.23 20.212 159.728 20.1061C160.222 19.9962 160.546 19.9648 160.546 19.9648C160.546 19.9648 160.532 20.2395 160.433 20.6553C160.339 21.079 160.156 21.6478 159.874 22.2794C159.31 23.5387 158.244 24.9746 156.887 26.1789C155.524 27.3833 153.876 28.3601 152.41 28.9133C151.673 29.1879 151.006 29.3723 150.508 29.4782C150.015 29.5881 149.695 29.6194 149.695 29.6194Z" fill="#CE8600"/>
<path d="M149.413 29.7482C149.413 29.7482 149.107 29.6579 148.656 29.4579C148.201 29.2617 147.6 28.9557 146.961 28.5516C145.678 27.7396 144.33 26.4764 143.33 25.0484C142.325 23.6204 141.672 22.0237 141.456 20.6899C141.352 20.023 141.329 19.4345 141.348 19.003C141.366 18.5793 141.423 18.3086 141.423 18.3086C141.423 18.3086 141.728 18.3988 142.179 18.5989C142.639 18.795 143.241 19.101 143.884 19.5051C145.166 20.3211 146.515 21.5804 147.51 23.0084C148.506 24.4403 149.154 26.0409 149.37 27.3747C149.478 28.0416 149.502 28.6262 149.483 29.0577C149.469 29.4814 149.413 29.7482 149.413 29.7482Z" fill="#CE8600"/>
<path d="M146.418 39.5336C146.418 39.5336 146.488 39.2708 146.667 38.8706C146.845 38.4665 147.137 37.933 147.541 37.3485C148.344 36.1873 149.673 34.9123 151.247 33.908C152.82 32.8997 154.638 32.1583 156.197 31.817C156.977 31.6483 157.668 31.5541 158.184 31.5149C158.691 31.4757 159.016 31.4914 159.016 31.4914C159.016 31.4914 158.95 31.7582 158.771 32.1583C158.593 32.5585 158.302 33.0959 157.898 33.6804C157.094 34.8456 155.765 36.1166 154.192 37.1209C152.609 38.1213 150.791 38.8588 149.236 39.2041C148.457 39.3767 147.761 39.4669 147.254 39.5061C146.742 39.5493 146.418 39.5336 146.418 39.5336Z" fill="#CE8600"/>
<path d="M146.116 39.6194C146.116 39.6194 145.834 39.486 145.425 39.2271C145.017 38.9721 144.486 38.5876 143.927 38.1012C142.823 37.1243 141.743 35.6963 141.033 34.1507C140.324 32.6011 139.991 30.9377 140.042 29.5921C140.07 28.9212 140.16 28.3407 140.263 27.917C140.362 27.4972 140.474 27.2422 140.474 27.2422C140.474 27.2422 140.756 27.3756 141.165 27.6306C141.578 27.8856 142.114 28.2739 142.668 28.7565C143.777 29.7372 144.857 31.1613 145.557 32.7109C146.261 34.2566 146.59 35.9239 146.538 37.2695C146.515 37.9403 146.426 38.5248 146.322 38.9446C146.224 39.3605 146.116 39.6194 146.116 39.6194Z" fill="#CE8600"/>
<path d="M138.869 50.6568C138.869 50.6568 139.043 50.4018 139.386 50.033C139.729 49.6604 140.241 49.1817 140.889 48.6796C142.181 47.6831 144.064 46.7142 146.098 46.0865C148.137 45.4627 150.321 45.1842 152.077 45.2469C152.96 45.2822 153.721 45.3725 154.276 45.4706C154.82 45.5686 155.154 45.6706 155.154 45.6706C155.154 45.6706 154.98 45.9295 154.637 46.2983C154.294 46.671 153.782 47.1535 153.139 47.6557C151.843 48.6561 149.964 49.6211 147.925 50.241C145.887 50.8608 143.698 51.1393 141.941 51.0766C141.058 51.0452 140.297 50.951 139.747 50.8529C139.203 50.7588 138.869 50.6568 138.869 50.6568Z" fill="#CE8600"/>
<path d="M139.251 50.4519C139.251 50.4519 138.979 50.2557 138.617 49.9026C138.246 49.5535 137.781 49.0396 137.321 48.4119C136.4 47.1565 135.63 45.4264 135.287 43.6375C134.954 41.8486 135.043 40.0048 135.466 38.5729C135.672 37.8589 135.931 37.2548 136.156 36.8232C136.377 36.3917 136.56 36.1406 136.56 36.1406C136.56 36.1406 136.832 36.3328 137.199 36.6859C137.57 37.039 138.035 37.5529 138.5 38.1767C139.421 39.432 140.191 41.1621 140.52 42.951C140.853 44.7399 140.755 46.5877 140.337 48.0156C140.13 48.7336 139.876 49.3377 139.651 49.7693C139.435 50.1969 139.251 50.4519 139.251 50.4519Z" fill="#CE8600"/>
<path d="M128.172 59.3569C128.172 59.3569 128.411 59.1373 128.839 58.8391C129.271 58.5371 129.896 58.1643 130.657 57.7917C132.178 57.0541 134.269 56.45 136.415 56.2107C138.571 55.9675 140.774 56.093 142.475 56.4735C143.325 56.6697 144.048 56.8972 144.555 57.0934C145.067 57.2856 145.363 57.4504 145.363 57.4504C145.363 57.4504 145.124 57.67 144.696 57.9682C144.264 58.2703 143.639 58.6469 142.878 59.0156C141.357 59.761 139.266 60.3573 137.12 60.5927C134.964 60.8281 132.761 60.7026 131.056 60.322C130.206 60.1298 129.487 59.9023 128.98 59.7061C128.468 59.5139 128.172 59.3569 128.172 59.3569Z" fill="#CE8600"/>
<path d="M127.831 59.2995C127.831 59.2995 127.648 59.0484 127.432 58.6169C127.206 58.1854 126.953 57.5812 126.746 56.8633C126.333 55.4353 126.234 53.5915 126.568 51.8026C126.906 50.0098 127.676 48.2797 128.597 47.0282C129.062 46.4006 129.527 45.8906 129.903 45.5375C130.269 45.1844 130.537 44.9922 130.537 44.9922C130.537 44.9922 130.724 45.2472 130.941 45.6748C131.166 46.1064 131.42 46.7105 131.631 47.4284C132.049 48.8564 132.143 50.7041 131.8 52.4891C131.457 54.278 130.687 56.0081 129.766 57.2635C129.301 57.8911 128.836 58.4051 128.465 58.7542C128.099 59.1073 127.831 59.2995 127.831 59.2995Z" fill="#CE8600"/>
<path d="M114.857 64.9631C114.857 64.9631 115.167 64.8141 115.684 64.6454C116.205 64.4688 116.938 64.2727 117.798 64.1158C119.522 63.8059 121.729 63.7705 123.866 64.0961C125.999 64.4218 128.052 65.1044 129.526 65.9086C130.269 66.3127 130.87 66.7128 131.278 67.0306C131.697 67.3484 131.917 67.5759 131.917 67.5759C131.917 67.5759 131.612 67.7289 131.091 67.8976C130.569 68.0741 129.836 68.2742 128.972 68.4311C127.253 68.745 125.045 68.7763 122.908 68.4468C120.78 68.1173 118.723 67.4268 117.248 66.6265C116.511 66.2264 115.91 65.8262 115.496 65.5045C115.083 65.1907 114.857 64.9631 114.857 64.9631Z" fill="#CE8600"/>
<path d="M114.552 64.8209C114.552 64.8209 114.477 64.5306 114.425 64.0677C114.369 63.6008 114.355 62.9575 114.421 62.2239C114.552 60.7606 115.144 58.9795 116.126 57.3632C117.107 55.7469 118.474 54.2993 119.818 53.346C120.489 52.8674 121.119 52.5026 121.607 52.2633C122.086 52.024 122.415 51.9062 122.415 51.9062C122.415 51.9062 122.495 52.1966 122.547 52.6595C122.603 53.1303 122.622 53.7736 122.556 54.5072C122.425 55.9744 121.833 57.7555 120.846 59.3679C119.86 60.9802 118.484 62.4278 117.145 63.3811C116.473 63.8597 115.844 64.2285 115.36 64.4678C114.886 64.7071 114.552 64.8209 114.552 64.8209Z" fill="#CE8600"/>
<path d="M98.668 68.7396C98.668 68.7396 99.0156 68.6926 99.5745 68.6886C100.138 68.6808 100.904 68.7122 101.777 68.8259C103.515 69.0456 105.596 69.6733 107.452 70.6109C109.312 71.5525 110.932 72.8 111.97 73.9926C112.487 74.5889 112.877 75.142 113.126 75.5657C113.379 75.9816 113.487 76.264 113.487 76.264C113.487 76.264 113.135 76.3111 112.576 76.3189C112.012 76.3268 111.242 76.2915 110.373 76.1856C108.63 75.9659 106.554 75.3343 104.704 74.3927C102.853 73.4473 101.228 72.1958 100.19 71.0032C99.6731 70.4109 99.2786 69.8538 99.0343 69.4379C98.7807 69.0182 98.668 68.7396 98.668 68.7396Z" fill="#CE8600"/>
<path d="M98.4414 68.5182C98.4414 68.5182 98.4931 68.22 98.6434 67.7728C98.7937 67.3216 99.052 66.7175 99.4278 66.0506C100.179 64.7207 101.49 63.2338 103.092 62.0138C104.703 60.7976 106.6 59.8522 108.258 59.3618C109.094 59.1146 109.837 58.9617 110.396 58.8832C110.945 58.8008 111.302 58.793 111.302 58.793C111.302 58.793 111.255 59.0872 111.105 59.5383C110.954 59.9895 110.691 60.5936 110.325 61.2606C109.574 62.5944 108.258 64.0812 106.652 65.2934C105.041 66.5056 103.139 67.4472 101.48 67.9415C100.644 68.1886 99.9022 68.3416 99.3479 68.424C98.7984 68.5064 98.4414 68.5182 98.4414 68.5182Z" fill="#CE8600"/>
<path d="M84.6348 69.595C84.6348 69.595 84.9823 69.5519 85.5413 69.544C86.105 69.5362 86.8706 69.5715 87.7442 69.6813C89.4822 69.9049 91.563 70.5287 93.4183 71.4702C95.2737 72.4078 96.8989 73.6593 97.9369 74.848C98.4536 75.4482 98.8435 75.9974 99.0924 76.4211C99.3461 76.837 99.4541 77.1194 99.4541 77.1194C99.4541 77.1194 99.1018 77.1704 98.5429 77.1743C97.9792 77.1861 97.2136 77.1508 96.3399 77.0409C94.5973 76.8212 92.5165 76.1936 90.6705 75.2481C88.8152 74.3066 87.19 73.0512 86.1519 71.8625C85.6352 71.2662 85.2454 70.7131 84.9964 70.2933C84.7428 69.8775 84.6348 69.595 84.6348 69.595Z" fill="#CE8600"/>
<path d="M84.4102 69.3736C84.4102 69.3736 84.4618 69.0794 84.6121 68.6283C84.7624 68.1771 85.0161 67.573 85.3966 66.9061C86.1481 65.5761 87.4586 64.0893 89.0603 62.8732C90.6714 61.6531 92.569 60.7076 94.2271 60.2173C95.0585 59.9701 95.8053 59.8171 96.3643 59.7387C96.9138 59.6563 97.2708 59.6484 97.2708 59.6484C97.2708 59.6484 97.2191 59.9427 97.0688 60.3938C96.9232 60.8489 96.6602 61.4491 96.2891 62.1199C95.5423 63.4538 94.2271 64.9367 92.6207 66.1528C91.0096 67.3611 89.1073 68.3066 87.4445 68.797C86.6178 69.0441 85.8709 69.1971 85.3167 69.2795C84.7671 69.3619 84.4102 69.3736 84.4102 69.3736Z" fill="#CE8600"/>
<path d="M78.2788 69.3214L78.2083 68.6232C77.842 68.6506 41.4442 71.0319 22.2471 50.3928C3.06422 29.7694 13.8253 7.46694 13.9333 7.24333L13.163 6.97656C13.0502 7.2041 2.0966 29.8675 21.5848 50.8204C41.0637 71.7616 77.9077 69.345 78.2788 69.3214Z" fill="#CE8600"/>
<path d="M11.8372 11.4121C11.8372 11.4121 12.0956 11.2905 12.4667 11.0512C12.8424 10.8119 13.3309 10.4549 13.8335 10.0037C14.8434 9.10145 15.8251 7.77939 16.4639 6.35532C17.1027 4.92734 17.3939 3.39735 17.3375 2.15767C17.3047 1.54175 17.2154 1.0043 17.1168 0.619847C17.0228 0.235389 16.9195 0 16.9195 0C16.9195 0 16.6612 0.121631 16.2854 0.360937C15.9096 0.600242 15.4211 0.957232 14.9139 1.40838C13.904 2.31068 12.9223 3.62881 12.2882 5.0568C11.6588 6.48479 11.3722 8.02262 11.4239 9.25445C11.4568 9.87429 11.5413 10.4078 11.64 10.7962C11.7339 11.1807 11.8372 11.4121 11.8372 11.4121Z" fill="#CE8600"/>
<path d="M10.4123 18.7884C10.4123 18.7884 10.4734 18.5452 10.5156 18.1529C10.5532 17.7606 10.5579 17.2192 10.4968 16.6033C10.37 15.3714 9.85803 13.8807 9.01725 12.5272C8.17178 11.1738 7.00692 9.9694 5.87022 9.17695C5.29718 8.78072 4.76639 8.47866 4.35304 8.28251C3.94909 8.08243 3.67196 7.98828 3.67196 7.98828C3.67196 7.98828 3.60621 8.23151 3.56864 8.62381C3.52636 9.01611 3.51698 9.5575 3.58274 10.1734C3.70487 11.4052 4.22153 12.8999 5.06701 14.2455C5.91249 15.595 7.08207 16.7994 8.21877 17.5958C8.78712 17.992 9.32257 18.2941 9.73122 18.4942C10.1352 18.6903 10.4123 18.7884 10.4123 18.7884Z" fill="#CE8600"/>
<path d="M10.6191 18.9503C10.6191 18.9503 10.9198 18.9346 11.3801 18.8522C11.8404 18.7738 12.4604 18.6247 13.1509 18.4011C14.5271 17.946 16.096 17.1104 17.4064 16.0512C18.7169 14.9959 19.7738 13.713 20.3562 12.5793C20.6521 12.0104 20.8447 11.4965 20.9527 11.1081C21.0702 10.7315 21.0937 10.4805 21.0937 10.4805C21.0937 10.4805 20.7977 10.4962 20.3374 10.5785C19.8724 10.657 19.2524 10.8061 18.5619 11.0297C17.181 11.4809 15.6168 12.3204 14.3111 13.3796C13.0006 14.4427 11.9531 15.7216 11.366 16.8593C11.07 17.4242 10.8775 17.9382 10.7647 18.3226C10.652 18.7031 10.6191 18.9503 10.6191 18.9503Z" fill="#CE8600"/>
<path d="M10.855 29.6194C10.855 29.6194 10.8362 29.3487 10.7376 28.9329C10.6436 28.5131 10.4604 27.9443 10.1739 27.3127C9.61024 26.0534 8.54871 24.6176 7.19125 23.4093C5.83849 22.201 4.1898 21.2241 2.71961 20.671C1.98216 20.4003 1.31518 20.212 0.81729 20.1061C0.324095 19.9962 0 19.9648 0 19.9648C0 19.9648 0.0187884 20.2395 0.117427 20.6553C0.211369 21.079 0.394557 21.6478 0.676383 22.2794C1.24003 23.5387 2.30157 24.9746 3.66373 26.1789C5.02119 27.3833 6.67455 28.3601 8.14005 28.9133C8.87749 29.1879 9.54449 29.3723 10.0377 29.4782C10.5309 29.5881 10.855 29.6194 10.855 29.6194Z" fill="#CE8600"/>
<path d="M11.131 29.7482C11.131 29.7482 11.4363 29.6579 11.8919 29.4579C12.3475 29.2617 12.9441 28.9557 13.5876 28.5516C14.8699 27.7396 16.218 26.4764 17.2184 25.0484C18.2189 23.6204 18.8765 22.0237 19.0879 20.6899C19.1959 20.023 19.2194 19.4345 19.2006 19.003C19.1818 18.5793 19.1255 18.3086 19.1255 18.3086C19.1255 18.3086 18.8154 18.3988 18.3645 18.5989C17.9089 18.795 17.3077 19.101 16.6642 19.5051C15.3772 20.3211 14.0338 21.5804 13.038 23.0084C12.0422 24.4403 11.3893 26.0409 11.1733 27.3747C11.0652 28.0416 11.0418 28.6262 11.0606 29.0577C11.0746 29.4814 11.131 29.7482 11.131 29.7482Z" fill="#CE8600"/>
<path d="M14.1328 39.5336C14.1328 39.5336 14.0623 39.2708 13.8791 38.8706C13.7006 38.4665 13.4094 37.933 13.0102 37.3485C12.2023 36.1873 10.8777 34.9123 9.29947 33.908C7.72594 32.8997 5.91285 32.1583 4.35341 31.817C3.57369 31.6483 2.87853 31.5541 2.36655 31.5149C1.85457 31.4757 1.53516 31.4914 1.53516 31.4914C1.53516 31.4914 1.60092 31.7582 1.77941 32.1583C1.9579 32.5585 2.24911 33.0959 2.64837 33.6804C3.45157 34.8456 4.78086 36.1166 6.35908 37.1209C7.9373 38.1213 9.75507 38.8588 11.3145 39.2041C12.0942 39.3767 12.7894 39.4669 13.2967 39.5061C13.8087 39.5493 14.1328 39.5336 14.1328 39.5336Z" fill="#CE8600"/>
<path d="M14.4291 39.6194C14.4291 39.6194 14.7109 39.486 15.1196 39.2271C15.5329 38.9721 16.0637 38.5876 16.618 38.1012C17.7218 37.1243 18.8068 35.6963 19.5161 34.1507C20.2206 32.6011 20.5541 30.9377 20.5071 29.5921C20.479 28.9212 20.3897 28.3407 20.2817 27.917C20.1831 27.4972 20.0703 27.2422 20.0703 27.2422C20.0703 27.2422 19.7885 27.3756 19.3845 27.6306C18.9665 27.8856 18.4357 28.2739 17.8815 28.7565C16.7729 29.7372 15.6926 31.1613 14.9881 32.7109C14.2882 34.2566 13.9594 35.9239 14.0064 37.2695C14.0345 37.9403 14.1238 38.5248 14.2224 38.9446C14.3211 39.3605 14.4291 39.6194 14.4291 39.6194Z" fill="#CE8600"/>
<path d="M21.6794 50.6568C21.6794 50.6568 21.5009 50.4018 21.158 50.033C20.8151 49.6604 20.3031 49.1817 19.6596 48.6796C18.3632 47.6831 16.4844 46.7142 14.4458 46.0865C12.412 45.4627 10.2278 45.1842 8.46642 45.2469C7.58806 45.2822 6.82714 45.3725 6.27289 45.4706C5.72802 45.5686 5.39453 45.6706 5.39453 45.6706C5.39453 45.6706 5.56831 45.9295 5.9112 46.2983C6.25409 46.671 6.76138 47.1535 7.40957 47.6557C8.70128 48.6561 10.5848 49.6211 12.6234 50.241C14.6619 50.8608 16.8461 51.1393 18.6075 51.0766C19.4858 51.0452 20.2467 50.951 20.7963 50.8529C21.3459 50.7588 21.6794 50.6568 21.6794 50.6568Z" fill="#CE8600"/>
<path d="M21.2997 50.4519C21.2997 50.4519 21.5674 50.2557 21.9338 49.9026C22.3049 49.5535 22.7699 49.0396 23.2302 48.4119C24.1508 47.1565 24.9165 45.4264 25.2594 43.6375C25.5976 41.8486 25.5036 40.0048 25.0856 38.5729C24.8742 37.8589 24.6206 37.2548 24.3951 36.8232C24.1743 36.3917 23.9864 36.1406 23.9864 36.1406C23.9864 36.1406 23.7187 36.3328 23.3523 36.6859C22.9813 37.039 22.5162 37.5529 22.0512 38.1767C21.1259 39.432 20.3603 41.1621 20.0268 42.951C19.6933 44.7399 19.7966 46.5877 20.21 48.0156C20.4214 48.7336 20.675 49.3377 20.8958 49.7693C21.1165 50.1969 21.2997 50.4519 21.2997 50.4519Z" fill="#CE8600"/>
<path d="M32.3777 59.3569C32.3777 59.3569 32.1382 59.1373 31.706 58.8391C31.2786 58.5371 30.6539 58.1643 29.8883 57.7917C28.3711 57.0541 26.2809 56.45 24.1296 56.2107C21.9784 55.9675 19.7754 56.093 18.0751 56.4735C17.2202 56.6697 16.5015 56.8972 15.9896 57.0934C15.4823 57.2856 15.1816 57.4504 15.1816 57.4504C15.1816 57.4504 15.4212 57.67 15.8534 57.9682C16.2855 58.2703 16.9102 58.6469 17.6664 59.0156C19.193 59.761 21.2785 60.3573 23.4298 60.5927C25.581 60.8281 27.7887 60.7026 29.489 60.322C30.3392 60.1298 31.0625 59.9023 31.5698 59.7061C32.0771 59.5139 32.3777 59.3569 32.3777 59.3569Z" fill="#CE8600"/>
<path d="M32.7182 59.2995C32.7182 59.2995 32.8966 59.0484 33.1174 58.6169C33.3429 58.1854 33.5918 57.5812 33.8032 56.8633C34.2165 55.4353 34.3105 53.5915 33.977 51.8026C33.6435 50.0098 32.8732 48.2797 31.9478 47.0282C31.4875 46.4006 31.0225 45.8906 30.6467 45.5375C30.2804 45.1844 30.0126 44.9922 30.0126 44.9922C30.0126 44.9922 29.8247 45.2472 29.604 45.6748C29.3785 46.1064 29.1296 46.7105 28.9135 47.4284C28.4955 48.8564 28.4015 50.7041 28.7444 52.4891C29.0873 54.278 29.8623 56.0081 30.783 57.2635C31.2433 57.8911 31.713 58.4051 32.0794 58.7542C32.4457 59.1073 32.7182 59.2995 32.7182 59.2995Z" fill="#CE8600"/>
<path d="M45.6927 64.9631C45.6927 64.9631 45.3826 64.8141 44.8613 64.6454C44.3399 64.4688 43.6071 64.2727 42.7476 64.1158C41.0237 63.8059 38.8161 63.7705 36.6836 64.0961C34.5465 64.4218 32.4985 65.1044 31.0189 65.9086C30.2815 66.3127 29.6803 66.7128 29.2669 67.0306C28.8536 67.3484 28.6328 67.5759 28.6328 67.5759C28.6328 67.5759 28.9381 67.7289 29.4595 67.8976C29.9809 68.0741 30.7136 68.2742 31.5732 68.4311C33.297 68.745 35.5047 68.7763 37.6372 68.4468C39.7696 68.1173 41.8223 67.4268 43.3019 66.6265C44.0393 66.2264 44.6405 65.8262 45.0492 65.5045C45.4625 65.1907 45.6927 64.9631 45.6927 64.9631Z" fill="#CE8600"/>
<path d="M45.9925 64.8209C45.9925 64.8209 46.0723 64.5306 46.124 64.0677C46.1756 63.6008 46.1944 62.9575 46.124 62.2239C45.9924 60.7606 45.4006 58.9795 44.4236 57.3632C43.4419 55.7469 42.0704 54.2993 40.7317 53.346C40.0553 52.8674 39.4259 52.5026 38.9421 52.2633C38.463 52.024 38.1342 51.9062 38.1342 51.9062C38.1342 51.9062 38.0497 52.1966 37.998 52.6595C37.9463 53.1303 37.9275 53.7736 37.9933 54.5072C38.1201 55.9744 38.7166 57.7555 39.6983 59.3679C40.6847 60.9802 42.061 62.4278 43.3997 63.3811C44.076 63.8597 44.7054 64.2285 45.1845 64.4678C45.6636 64.7071 45.9925 64.8209 45.9925 64.8209Z" fill="#CE8600"/>
<path d="M61.8838 68.7396C61.8838 68.7396 61.5315 68.6926 60.9726 68.6886C60.4089 68.6808 59.6433 68.7122 58.7743 68.8259C57.0317 69.0456 54.9509 69.6733 53.0955 70.6109C51.2402 71.5525 49.6197 72.8 48.5816 73.9926C48.0603 74.5889 47.6751 75.142 47.4261 75.5657C47.1725 75.9816 47.0645 76.264 47.0645 76.264C47.0645 76.264 47.4121 76.3111 47.971 76.3189C48.5347 76.3268 49.305 76.2915 50.1739 76.1856C51.9212 75.9659 53.9974 75.3343 55.848 74.3927C57.6987 73.4473 59.3239 72.1958 60.3619 71.0032C60.8786 70.4109 61.2685 69.8538 61.5174 69.4379C61.7711 69.0182 61.8838 68.7396 61.8838 68.7396Z" fill="#CE8600"/>
<path d="M62.102 68.5182C62.102 68.5182 62.0551 68.22 61.9001 67.7728C61.7545 67.3216 61.4961 66.7175 61.1204 66.0506C60.3688 64.7207 59.0536 63.2338 57.4519 62.0138C55.8455 60.7976 53.9479 59.8522 52.2851 59.3618C51.4537 59.1146 50.7069 58.9617 50.1526 58.8832C49.6031 58.8008 49.2461 58.793 49.2461 58.793C49.2461 58.793 49.2931 59.0872 49.4434 59.5383C49.5937 59.9895 49.852 60.5936 50.2231 61.2606C50.9699 62.5944 52.2851 64.0812 53.8962 65.2934C55.5073 66.5056 57.4049 67.4472 59.0677 67.9415C59.8991 68.1886 60.6459 68.3416 61.2002 68.424C61.7498 68.5064 62.102 68.5182 62.102 68.5182Z" fill="#CE8600"/>
<path d="M75.9151 69.595C75.9151 69.595 75.5628 69.5519 75.0038 69.544C74.4402 69.5362 73.6745 69.5715 72.8056 69.6813C71.063 69.9049 68.9821 70.5287 67.1268 71.4702C65.2761 72.4078 63.6509 73.6593 62.6129 74.848C62.0962 75.4482 61.7063 75.9974 61.4574 76.4211C61.2037 76.837 61.0957 77.1194 61.0957 77.1194C61.0957 77.1194 61.4433 77.1704 62.0023 77.1743C62.5659 77.1861 63.3362 77.1508 64.2099 77.0409C65.9525 76.8212 68.0286 76.1936 69.8793 75.2481C71.7299 74.3066 73.3551 73.0512 74.3932 71.8625C74.9099 71.2662 75.2997 70.7131 75.5487 70.2933C75.8023 69.8775 75.9151 69.595 75.9151 69.595Z" fill="#CE8600"/>
<path d="M76.1352 69.3736C76.1352 69.3736 76.0883 69.0794 75.9333 68.6283C75.7877 68.1771 75.5293 67.573 75.1536 66.9061C74.402 65.5761 73.0915 64.0893 71.4851 62.8732C69.8787 61.6531 67.9811 60.7076 66.3183 60.2173C65.4869 59.9701 64.7448 59.8171 64.1858 59.7387C63.6363 59.6563 63.2793 59.6484 63.2793 59.6484C63.2793 59.6484 63.3263 59.9427 63.4813 60.3938C63.6269 60.8489 63.8852 61.4491 64.2563 62.1199C65.0078 63.4538 66.323 64.9367 67.9294 66.1528C69.5405 67.3611 71.4429 68.3066 73.1009 68.797C73.9323 69.0441 74.6792 69.1971 75.2334 69.2795C75.783 69.3619 76.1352 69.3736 76.1352 69.3736Z" fill="#CE8600"/>
</svg>
