<svg width="526" height="474" viewBox="0 0 526 474" fill="none" xmlns="http://www.w3.org/2000/svg">
<path d="M399.62 168.838L414.039 239.875L290.54 284L125.039 239.249L136.95 166.96L185.039 155.381L203.039 151L260.039 136.5L336.539 151L354.797 155.381L399.62 168.838Z" fill="#E2E9F7" stroke="black"/>
<path d="M31.0391 305.262L74.9914 291.024L72.2057 300.929L300.944 367.786L467.777 300.929V290.5L512.349 305.262L525.039 375.833L306.825 469L18.0391 381.095L31.0391 305.262Z" fill="#F7CB46" stroke="black"/>
<path d="M455.104 234.479L409.892 219L412.059 234.169L291.597 275.961L128.09 234.479V219L82.2583 234.479L72.0391 301.965L299.958 371L469.039 301.965L455.104 234.479Z" fill="#E2E9F7" stroke="black"/>
<path d="M291.04 206.137L142.039 166.5C140.558 166.06 138.539 166.001 137.539 166.876L289.997 207.375L291.04 206.137Z" fill="#424242" stroke="black"/>
<path d="M296.539 299.5L82.5391 236V234.5L298.039 298.152L296.189 298.46L296.539 299.5Z" fill="#1B1919" stroke="black"/>
<path d="M305.703 393L30.5391 308.5L31.0391 306.5L307.539 392L305.703 393Z" fill="#323232" stroke="black"/>
<path d="M484.575 318.084L312.526 367.464L470.057 304.197L467.586 290L512.993 304.197L525.039 380.426L309.128 469L306.039 392.462L484.575 318.084Z" fill="url(#paint0_linear_941_281)" stroke="black" stroke-width="0.2"/>
<path d="M429.519 245.343L294.039 277.264L411.269 232.326L409.413 219L456.12 231.397L470.039 303.917L298.679 369L296.823 298.339L429.519 245.343Z" fill="url(#paint1_linear_941_281)" stroke="black" stroke-width="0.2"/>
<path d="M395.539 167.5L395.409 167.535L399.039 168.5L411.038 233.015L293.669 277L289.664 207.305L382.389 171.063L395.409 167.535L394.188 167.211L388.539 166L359.539 158L394.188 167.211L395.539 167.5Z" fill="url(#paint2_linear_941_281)" stroke="url(#paint3_linear_941_281)" stroke-width="0.2"/>
<path d="M315.539 69.5005C312.372 69.3339 299.339 70.8005 272.539 78.0005L274.539 18.5C275.206 18 276.939 17 278.539 17C280.139 17 295.539 18 303.039 18.5C308.872 19.5 321.739 21.7 326.539 22.5C332.539 23.5 354.039 26.5 356.539 26.5C358.539 26.5 363.706 25.5 366.039 25L356.039 35.5C352.039 38.5 346.939 43 344.539 47C342.139 51 354.039 61.3333 360.539 66.5C363.539 68 373.039 68 365.539 69.5005C361.805 70.2476 348.039 73 340.539 71.5C334.539 70.3 321.372 69.667 315.539 69.5005Z" fill="url(#paint4_linear_941_281)" stroke="black"/>
<path d="M270.039 160V5" stroke="url(#paint5_linear_941_281)" stroke-width="10" stroke-linecap="round"/>
<path d="M121.026 369.039L116.189 389.32L112.862 388.527L116.175 374.636L106.676 387.051L104.37 386.501L101.468 371.129L98.1548 385.019L94.8281 384.226L99.6651 363.944L103.254 364.8L106.582 382.403L117.466 368.19L121.026 369.039ZM127.473 392.289C125.956 391.927 124.665 391.259 123.602 390.286C122.544 389.294 121.813 388.091 121.409 386.679C121.01 385.247 121.008 383.705 121.403 382.051C121.792 380.417 122.498 379.054 123.519 377.961C124.541 376.868 125.755 376.129 127.163 375.746C128.57 375.362 130.042 375.353 131.579 375.719C133.116 376.086 134.426 376.758 135.509 377.736C136.591 378.714 137.342 379.921 137.76 381.357C138.178 382.793 138.192 384.328 137.803 385.963C137.413 387.597 136.698 388.958 135.657 390.046C134.616 391.134 133.37 391.876 131.919 392.27C130.492 392.649 129.01 392.655 127.473 392.289ZM128.162 389.4C129.018 389.604 129.865 389.59 130.701 389.358C131.557 389.13 132.316 388.664 132.978 387.958C133.64 387.252 134.11 386.316 134.388 385.148C134.667 383.981 134.677 382.945 134.42 382.041C134.168 381.117 133.72 380.363 133.079 379.778C132.437 379.193 131.688 378.799 130.832 378.594C129.976 378.39 129.129 378.404 128.293 378.637C127.476 378.873 126.755 379.349 126.133 380.064C125.514 380.76 125.066 381.691 124.788 382.859C124.375 384.59 124.492 386.037 125.14 387.199C125.813 388.346 126.82 389.08 128.162 389.4ZM151.18 380.394C152.445 380.696 153.511 381.228 154.377 381.989C155.264 382.756 155.866 383.722 156.184 384.888C156.503 386.053 156.488 387.366 156.14 388.825L153.878 398.309L150.58 397.522L152.724 388.534C153.067 387.095 152.97 385.91 152.431 384.979C151.896 384.03 151.007 383.406 149.762 383.109C148.517 382.812 147.432 382.965 146.507 383.567C145.606 384.154 144.984 385.167 144.641 386.607L142.497 395.594L139.17 394.801L143.005 378.722L146.332 379.515L145.893 381.354C146.596 380.822 147.409 380.472 148.334 380.301C149.278 380.136 150.227 380.167 151.18 380.394ZM165.19 386.881L163.067 395.782C162.923 396.385 162.955 396.855 163.163 397.192C163.394 397.515 163.85 397.757 164.531 397.92L166.574 398.407L165.913 401.179L163.286 400.553C161.788 400.195 160.724 399.572 160.094 398.681C159.463 397.79 159.336 396.557 159.711 394.981L161.834 386.081L159.937 385.629L160.585 382.915L162.481 383.367L163.435 379.369L166.791 380.17L165.837 384.167L169.748 385.1L169.1 387.814L165.19 386.881ZM181.193 387.552C182.419 387.844 183.445 388.367 184.273 389.12C185.121 389.877 185.694 390.836 185.993 391.997C186.311 393.163 186.296 394.475 185.948 395.934L183.686 405.418L180.389 404.632L182.532 395.644C182.876 394.204 182.778 393.019 182.239 392.089C181.705 391.139 180.815 390.515 179.57 390.218C178.325 389.921 177.24 390.074 176.315 390.676C175.415 391.263 174.792 392.276 174.449 393.716L172.306 402.704L168.979 401.91L174.129 380.316L177.456 381.109L175.695 388.492C176.421 387.946 177.257 387.59 178.201 387.425C179.165 387.264 180.162 387.306 181.193 387.552ZM198.984 389.791L199.708 386.756L205.778 388.203L200.704 409.477L197.349 408.676L201.698 390.438L198.984 389.791Z" fill="#333333"/>
<defs>
<linearGradient id="paint0_linear_941_281" x1="436" y1="373" x2="254.5" y2="429.5" gradientUnits="userSpaceOnUse">
<stop stop-color="#AE8F2E"/>
<stop offset="1" stop-color="#F7CB46"/>
</linearGradient>
<linearGradient id="paint1_linear_941_281" x1="269.539" y1="303" x2="457.539" y2="284" gradientUnits="userSpaceOnUse">
<stop stop-color="#A1AFCC"/>
<stop offset="1" stop-color="#A1AFCC"/>
</linearGradient>
<linearGradient id="paint2_linear_941_281" x1="399.539" y1="214" x2="251.039" y2="226.5" gradientUnits="userSpaceOnUse">
<stop stop-color="#A1AFCC"/>
<stop offset="1" stop-color="#A1AFCC"/>
</linearGradient>
<linearGradient id="paint3_linear_941_281" x1="349.582" y1="150" x2="349.582" y2="277" gradientUnits="userSpaceOnUse">
<stop/>
<stop offset="1" stop-color="#666666"/>
</linearGradient>
<linearGradient id="paint4_linear_941_281" x1="320.449" y1="17" x2="320.449" y2="78.0005" gradientUnits="userSpaceOnUse">
<stop stop-color="#F7CB46"/>
<stop offset="1" stop-color="#B89731"/>
</linearGradient>
<linearGradient id="paint5_linear_941_281" x1="270.039" y1="38" x2="270.539" y2="160" gradientUnits="userSpaceOnUse">
<stop stop-color="#A2BFFF"/>
<stop offset="1" stop-color="#414652"/>
</linearGradient>
</defs>
</svg>
