<svg width="509" height="470" viewBox="0 0 509 470" fill="none" xmlns="http://www.w3.org/2000/svg">
<path d="M382.148 168.838L396.566 239.875L273.067 284L107.566 239.249L119.477 166.96L167.566 155.381L185.566 151L242.566 136.5L319.066 151L337.325 155.381L382.148 168.838Z" fill="#E2E9F7" stroke="black"/>
<path d="M13.5664 305.262L57.5188 291.024L54.7331 300.929L283.471 367.786L450.304 300.929V290.5L494.876 305.262L507.566 375.833L289.352 469L0.566406 381.095L13.5664 305.262Z" fill="#E2E9F7" stroke="black"/>
<path d="M437.631 234.479L392.419 219L394.587 234.169L274.124 275.961L110.617 234.479V219L64.7856 234.479L54.5664 301.965L282.485 371L451.566 301.965L437.631 234.479Z" fill="#F7CB46" stroke="black"/>
<path d="M273.567 206.137L124.566 166.5C123.086 166.06 121.066 166.001 120.066 166.876L272.524 207.375L273.567 206.137Z" fill="#424242" stroke="black"/>
<path d="M279.066 299.5L65.0664 236V234.5L280.566 298.152L278.716 298.46L279.066 299.5Z" fill="#1B1919" stroke="black"/>
<path d="M288.23 393L13.0664 308.5L13.5664 306.5L290.066 392L288.23 393Z" fill="#323232" stroke="black"/>
<path d="M467.102 318.084L295.053 367.464L452.585 304.197L450.114 290L495.52 304.197L507.566 380.426L291.655 469L288.566 392.462L467.102 318.084Z" fill="url(#paint0_linear_941_267)" stroke="black" stroke-width="0.2"/>
<path d="M412.046 245.343L276.566 277.264L393.797 232.326L391.941 219L438.647 231.397L452.566 303.917L281.206 369L279.35 298.339L412.046 245.343Z" fill="url(#paint1_linear_941_267)" stroke="black" stroke-width="0.2"/>
<path d="M378.066 167.5L377.937 167.535L381.566 168.5L393.566 233.015L276.196 277L272.191 207.305L364.917 171.063L377.937 167.535L376.716 167.211L371.066 166L342.066 158L376.716 167.211L378.066 167.5Z" fill="url(#paint2_linear_941_267)" stroke="url(#paint3_linear_941_267)" stroke-width="0.2"/>
<path d="M298.066 69.5005C294.9 69.3339 281.866 70.8005 255.066 78.0005L257.066 18.5C257.733 18 259.466 17 261.066 17C262.666 17 278.066 18 285.566 18.5C291.4 19.5 304.266 21.7 309.066 22.5C315.066 23.5 336.566 26.5 339.066 26.5C341.066 26.5 346.233 25.5 348.566 25L338.566 35.5C334.566 38.5 329.466 43 327.066 47C324.666 51 336.566 61.3333 343.066 66.5C346.066 68 355.566 68 348.066 69.5005C344.332 70.2476 330.566 73 323.066 71.5C317.066 70.3 303.9 69.667 298.066 69.5005Z" fill="url(#paint4_linear_941_267)" stroke="black"/>
<path d="M252.566 160L252.566 5" stroke="url(#paint5_linear_941_267)" stroke-width="10" stroke-linecap="round"/>
<path d="M122.269 281.247L117.432 301.528L114.105 300.735L117.418 286.844L107.918 299.259L105.613 298.71L102.71 283.337L99.3973 297.227L96.0706 296.434L100.908 276.153L104.497 277.009L107.824 294.611L118.708 280.398L122.269 281.247ZM128.716 304.497C127.198 304.135 125.908 303.468 124.845 302.494C123.786 301.502 123.055 300.299 122.652 298.887C122.253 297.456 122.251 295.913 122.645 294.259C123.035 292.625 123.74 291.262 124.762 290.169C125.783 289.076 126.998 288.338 128.405 287.954C129.813 287.57 131.285 287.561 132.822 287.928C134.359 288.294 135.668 288.966 136.751 289.944C137.834 290.922 138.584 292.129 139.002 293.565C139.421 295.001 139.435 296.537 139.045 298.171C138.655 299.805 137.94 301.166 136.899 302.254C135.858 303.343 134.612 304.084 133.161 304.478C131.735 304.857 130.253 304.864 128.716 304.497ZM129.405 301.608C130.261 301.812 131.107 301.798 131.944 301.566C132.8 301.338 133.559 300.872 134.221 300.166C134.882 299.46 135.353 298.524 135.631 297.357C135.909 296.189 135.92 295.153 135.663 294.249C135.41 293.325 134.963 292.571 134.321 291.986C133.679 291.401 132.93 291.007 132.074 290.803C131.218 290.599 130.372 290.613 129.535 290.845C128.718 291.082 127.998 291.558 127.375 292.273C126.757 292.968 126.309 293.9 126.03 295.067C125.617 296.798 125.735 298.245 126.383 299.407C127.055 300.554 128.062 301.288 129.405 301.608ZM152.423 292.602C153.687 292.904 154.753 293.436 155.62 294.198C156.506 294.964 157.109 295.93 157.427 297.096C157.745 298.262 157.73 299.574 157.382 301.033L155.12 310.517L151.823 309.731L153.966 300.743C154.31 299.303 154.212 298.118 153.673 297.188C153.139 296.238 152.249 295.614 151.004 295.317C149.759 295.02 148.674 295.173 147.749 295.775C146.849 296.362 146.227 297.375 145.883 298.815L143.74 307.803L140.413 307.009L144.248 290.93L147.574 291.724L147.136 293.562C147.838 293.031 148.652 292.68 149.577 292.51C150.521 292.344 151.47 292.375 152.423 292.602ZM166.432 299.09L164.31 307.99C164.166 308.593 164.198 309.063 164.405 309.4C164.637 309.723 165.093 309.965 165.774 310.128L167.816 310.615L167.155 313.387L164.529 312.761C163.031 312.404 161.967 311.78 161.336 310.889C160.705 309.999 160.578 308.765 160.954 307.19L163.077 298.289L161.18 297.837L161.827 295.123L163.724 295.575L164.677 291.577L168.033 292.378L167.08 296.376L170.99 297.308L170.343 300.022L166.432 299.09ZM182.436 299.76C183.661 300.053 184.688 300.575 185.516 301.328C186.363 302.085 186.937 303.044 187.235 304.205C187.554 305.371 187.539 306.683 187.191 308.142L184.929 317.626L181.631 316.84L183.775 307.852C184.118 306.412 184.021 305.227 183.482 304.297C182.947 303.347 182.058 302.724 180.813 302.427C179.568 302.13 178.483 302.282 177.558 302.884C176.657 303.471 176.035 304.484 175.692 305.924L173.548 314.912L170.221 314.119L175.372 292.524L178.698 293.318L176.937 300.701C177.664 300.154 178.499 299.798 179.444 299.633C180.407 299.472 181.404 299.514 182.436 299.76ZM199.232 316.257C201.485 315.088 203.269 314.115 204.585 313.339C205.925 312.549 207.089 311.675 208.078 310.718C209.067 309.762 209.696 308.719 209.965 307.591C210.244 306.423 210.18 305.442 209.773 304.646C209.386 303.854 208.6 303.317 207.413 303.034C206.265 302.76 205.282 302.917 204.464 303.503C203.67 304.074 203.107 304.968 202.776 306.184L199.566 305.419C200.153 303.215 201.218 301.68 202.761 300.814C204.328 299.934 206.094 299.728 208.059 300.197C210.179 300.702 211.694 301.68 212.602 303.131C213.53 304.586 213.762 306.286 213.298 308.231C212.964 309.632 212.281 310.898 211.251 312.03C210.244 313.147 209.122 314.103 207.884 314.897C206.67 315.677 205.144 316.557 203.306 317.537L201.715 318.391L210.965 320.597L210.304 323.37L196.122 319.987L196.7 317.565L199.232 316.257Z" fill="#333333"/>
<defs>
<linearGradient id="paint0_linear_941_267" x1="500.566" y1="342" x2="194.066" y2="444" gradientUnits="userSpaceOnUse">
<stop stop-color="#9CAAC5"/>
<stop offset="1" stop-color="#A5B3D0"/>
</linearGradient>
<linearGradient id="paint1_linear_941_267" x1="252.066" y1="303" x2="440.066" y2="284" gradientUnits="userSpaceOnUse">
<stop stop-color="#A4862B"/>
<stop offset="1" stop-color="#D6B03B"/>
</linearGradient>
<linearGradient id="paint2_linear_941_267" x1="382.066" y1="214" x2="233.566" y2="226.5" gradientUnits="userSpaceOnUse">
<stop stop-color="#A1AFCC"/>
<stop offset="1" stop-color="#A1AFCC"/>
</linearGradient>
<linearGradient id="paint3_linear_941_267" x1="332.109" y1="150" x2="332.109" y2="277" gradientUnits="userSpaceOnUse">
<stop/>
<stop offset="1" stop-color="#666666"/>
</linearGradient>
<linearGradient id="paint4_linear_941_267" x1="302.976" y1="17" x2="302.976" y2="78.0005" gradientUnits="userSpaceOnUse">
<stop stop-color="#F7CB46"/>
<stop offset="1" stop-color="#B89731"/>
</linearGradient>
<linearGradient id="paint5_linear_941_267" x1="252.566" y1="38" x2="253.066" y2="160" gradientUnits="userSpaceOnUse">
<stop stop-color="#A2BFFF"/>
<stop offset="1" stop-color="#414652"/>
</linearGradient>
</defs>
</svg>
