<svg width="509" height="470" viewBox="0 0 509 470" fill="none" xmlns="http://www.w3.org/2000/svg">
<path d="M382.148 168.838L396.566 239.875L273.067 284L107.566 239.249L119.477 166.96L167.566 155.381L185.566 151L242.566 136.5L319.066 151L337.325 155.381L382.148 168.838Z" fill="#F7CB46" stroke="black"/>
<path d="M13.5664 305.262L57.5188 291.024L54.7331 300.929L283.471 367.786L450.304 300.929V290.5L494.876 305.262L507.566 375.833L289.352 469L0.566406 381.095L13.5664 305.262Z" fill="#E2E9F7" stroke="black"/>
<path d="M437.631 234.479L392.419 219L394.587 234.169L274.124 275.961L110.617 234.479V219L64.7856 234.479L54.5664 301.965L282.485 371L451.566 301.965L437.631 234.479Z" fill="#E2E9F7" stroke="black"/>
<path d="M273.567 206.137L124.566 166.5C123.086 166.06 121.066 166.001 120.066 166.876L272.524 207.375L273.567 206.137Z" fill="#424242" stroke="black"/>
<path d="M279.066 299.5L65.0664 236V234.5L280.566 298.152L278.716 298.46L279.066 299.5Z" fill="#1B1919" stroke="black"/>
<path d="M288.23 393L13.0664 308.5L13.5664 306.5L290.066 392L288.23 393Z" fill="#323232" stroke="black"/>
<path d="M467.102 318.084L295.053 367.464L452.585 304.197L450.114 290L495.52 304.197L507.566 380.426L291.655 469L288.566 392.462L467.102 318.084Z" fill="url(#paint0_linear_941_266)" stroke="black" stroke-width="0.2"/>
<path d="M412.046 245.343L276.566 277.264L393.797 232.326L391.941 219L438.647 231.397L452.566 303.917L281.206 369L279.35 298.339L412.046 245.343Z" fill="url(#paint1_linear_941_266)" stroke="black" stroke-width="0.2"/>
<path d="M378.066 167.5L377.937 167.535L381.566 168.5L393.566 233.015L276.196 277L272.191 207.305L364.917 171.063L377.937 167.535L376.716 167.211L371.066 166L342.066 158L376.716 167.211L378.066 167.5Z" fill="url(#paint2_linear_941_266)"/>
<path d="M378.066 167.5L364.917 171.063L272.191 207.305L276.196 277L393.566 233.015L381.566 168.5L342.066 158L371.066 166L378.066 167.5Z" stroke="url(#paint3_linear_941_266)" stroke-width="0.2"/>
<path d="M298.066 69.5005C294.9 69.3339 281.866 70.8005 255.066 78.0005L257.066 18.5C257.733 18 259.466 17 261.066 17C262.666 17 278.066 18 285.566 18.5C291.4 19.5 304.266 21.7 309.066 22.5C315.066 23.5 336.566 26.5 339.066 26.5C341.066 26.5 346.233 25.5 348.566 25L338.566 35.5C334.566 38.5 329.466 43 327.066 47C324.666 51 336.566 61.3333 343.066 66.5C346.066 68 355.566 68 348.066 69.5005C344.332 70.2476 330.566 73 323.066 71.5C317.066 70.3 303.9 69.667 298.066 69.5005Z" fill="url(#paint4_linear_941_266)" stroke="black"/>
<path d="M252.566 160L252.566 5" stroke="url(#paint5_linear_941_266)" stroke-width="10" stroke-linecap="round"/>
<path d="M161.101 202.392L156.264 222.674L152.937 221.88L156.25 207.99L146.75 220.405L144.445 219.855L141.542 204.482L138.229 218.373L134.903 217.579L139.74 197.298L143.329 198.154L146.656 215.756L157.54 201.543L161.101 202.392ZM167.548 225.642C166.03 225.281 164.74 224.613 163.677 223.64C162.618 222.647 161.887 221.445 161.484 220.033C161.085 218.601 161.083 217.058 161.477 215.405C161.867 213.771 162.572 212.407 163.594 211.314C164.615 210.221 165.83 209.483 167.237 209.099C168.645 208.715 170.117 208.706 171.654 209.073C173.191 209.44 174.5 210.112 175.583 211.09C176.666 212.067 177.416 213.274 177.834 214.711C178.253 216.147 178.267 217.682 177.877 219.316C177.487 220.95 176.772 222.312 175.731 223.4C174.69 224.488 173.444 225.229 171.993 225.623C170.567 226.003 169.085 226.009 167.548 225.642ZM168.237 222.753C169.093 222.958 169.939 222.944 170.776 222.711C171.632 222.484 172.391 222.017 173.053 221.311C173.714 220.606 174.185 219.669 174.463 218.502C174.741 217.335 174.752 216.299 174.495 215.395C174.242 214.471 173.795 213.716 173.153 213.132C172.511 212.547 171.762 212.152 170.906 211.948C170.05 211.744 169.204 211.758 168.367 211.99C167.55 212.227 166.83 212.703 166.207 213.418C165.589 214.113 165.141 215.045 164.862 216.212C164.449 217.944 164.567 219.39 165.215 220.552C165.887 221.7 166.894 222.433 168.237 222.753ZM191.255 213.748C192.519 214.049 193.585 214.581 194.452 215.343C195.338 216.11 195.941 217.076 196.259 218.241C196.577 219.407 196.562 220.719 196.214 222.178L193.952 231.662L190.655 230.876L192.798 221.888C193.142 220.448 193.044 219.263 192.505 218.333C191.971 217.383 191.081 216.76 189.836 216.463C188.591 216.166 187.506 216.318 186.581 216.92C185.681 217.507 185.059 218.521 184.715 219.96L182.572 228.948L179.245 228.155L183.08 212.076L186.406 212.869L185.968 214.707C186.67 214.176 187.484 213.825 188.409 213.655C189.353 213.489 190.302 213.52 191.255 213.748ZM205.264 220.235L203.142 229.135C202.998 229.738 203.03 230.209 203.237 230.546C203.469 230.868 203.925 231.111 204.606 231.273L206.648 231.76L205.987 234.533L203.361 233.906C201.863 233.549 200.799 232.925 200.168 232.034C199.537 231.144 199.41 229.911 199.786 228.335L201.909 219.435L200.012 218.982L200.659 216.268L202.556 216.721L203.509 212.723L206.865 213.523L205.912 217.521L209.822 218.454L209.175 221.167L205.264 220.235ZM221.268 220.906C222.493 221.198 223.52 221.721 224.348 222.473C225.195 223.23 225.769 224.19 226.067 225.351C226.386 226.516 226.371 227.829 226.023 229.288L223.761 238.772L220.463 237.985L222.607 228.997C222.95 227.558 222.853 226.373 222.314 225.442C221.779 224.492 220.89 223.869 219.645 223.572C218.4 223.275 217.315 223.428 216.39 224.029C215.489 224.616 214.867 225.63 214.524 227.069L212.38 236.057L209.053 235.264L214.204 213.67L217.53 214.463L215.769 221.846C216.496 221.3 217.331 220.944 218.276 220.778C219.239 220.617 220.236 220.66 221.268 220.906ZM238.909 225.453C239.458 223.671 240.485 222.425 241.99 221.715C243.516 221.01 245.271 220.894 247.255 221.367C248.617 221.692 249.736 222.216 250.612 222.939C251.488 223.662 252.079 224.502 252.386 225.459C252.692 226.416 252.72 227.42 252.469 228.471C252.182 229.677 251.615 230.631 250.768 231.334C249.922 232.037 249.017 232.428 248.053 232.506L248.025 232.623C249.089 233.247 249.831 234.102 250.25 235.189C250.674 236.257 250.714 237.51 250.371 238.95C250.097 240.098 249.591 241.056 248.852 241.826C248.114 242.595 247.166 243.12 246.01 243.399C244.858 243.659 243.562 243.618 242.123 243.274C240.022 242.773 238.418 241.825 237.311 240.43C236.229 239.021 235.88 237.293 236.265 235.246L239.475 236.012C239.307 237.062 239.504 238.003 240.066 238.836C240.633 239.65 241.529 240.203 242.755 240.495C243.941 240.778 244.932 240.675 245.727 240.186C246.527 239.678 247.05 238.908 247.296 237.877C247.621 236.515 247.413 235.448 246.672 234.675C245.955 233.887 244.702 233.28 242.912 232.853L242.153 232.672L242.807 229.929L243.595 230.117C245.176 230.473 246.435 230.496 247.372 230.185C248.33 229.879 248.938 229.181 249.198 228.091C249.421 227.158 249.295 226.346 248.822 225.658C248.354 224.95 247.565 224.464 246.456 224.199C245.367 223.939 244.453 224.02 243.715 224.44C242.982 224.841 242.46 225.436 242.149 226.225L238.909 225.453Z" fill="#333333"/>
<defs>
<linearGradient id="paint0_linear_941_266" x1="500.566" y1="342" x2="194.066" y2="444" gradientUnits="userSpaceOnUse">
<stop stop-color="#9CAAC5"/>
<stop offset="1" stop-color="#A5B3D0"/>
</linearGradient>
<linearGradient id="paint1_linear_941_266" x1="252.066" y1="303" x2="440.066" y2="284" gradientUnits="userSpaceOnUse">
<stop stop-color="#E2E9F7"/>
<stop offset="1" stop-color="#A0AECA"/>
</linearGradient>
<linearGradient id="paint2_linear_941_266" x1="382.066" y1="214" x2="233.566" y2="226.5" gradientUnits="userSpaceOnUse">
<stop stop-color="#967A26"/>
<stop offset="1" stop-color="#F7CB46"/>
</linearGradient>
<linearGradient id="paint3_linear_941_266" x1="332.109" y1="150" x2="332.109" y2="277" gradientUnits="userSpaceOnUse">
<stop/>
<stop offset="1" stop-color="#666666"/>
</linearGradient>
<linearGradient id="paint4_linear_941_266" x1="302.976" y1="17" x2="302.976" y2="78.0005" gradientUnits="userSpaceOnUse">
<stop stop-color="#F7CB46"/>
<stop offset="1" stop-color="#B89731"/>
</linearGradient>
<linearGradient id="paint5_linear_941_266" x1="252.566" y1="38" x2="253.066" y2="160" gradientUnits="userSpaceOnUse">
<stop stop-color="#A2BFFF"/>
<stop offset="1" stop-color="#414652"/>
</linearGradient>
</defs>
</svg>
